<svg xmlns="http://www.w3.org/2000/svg" width="160" height="160" baseProfile="tiny-ps" version="1.2" viewBox="0 0 160 160">
  <g id="Background">
    <rect width="160" height="160" fill="#005465"/>
  </g>
  <g id="Logo">
    <g>
      <path d="M112.83,102.64c-6.97,6.86-3.04,17.66,5.21,21.15,15.94,6.74,30.41-11.49,24.71-27.07-4.51-12.3-16.94-17.62-29.07-14.18-23.12,6.56-26.78,36.28-41.37,52.42-13.97,15.46-38.39,21.86-55.02,6.77-20.15-18.28-7.16-55.15,20.5-49.61,19.61,3.93,23.57,31.99,6.06,38.17-13.77,4.86-24.72-12.87-13.64-19.37,2.49-1.46,7.69-2.05,8.41,1.79.59,3.13-3.71,2.13-3.79,5.67-.13,5.4,8.04,4.81,10.5-.15,3.51-7.08-1.26-15.66-8.48-17.59-12.99-3.48-22.79,10.41-20.51,22.78,2.68,14.57,18.68,20.37,31.55,17.04,27.22-7.04,30.8-45.41,51.77-60.48,17.43-12.53,41.57-10.11,50.39,11.42,8.9,21.74-7.48,46.94-31.13,42.38-18.44-3.56-25.49-27.74-9.7-38.89,10.13-7.16,26.04-2.27,24.43,11.7-.67,5.83-6.73,11.42-12.56,8.68-4.1-1.93-3.57-8.34.72-9.05,1.47-.24,3.45,1.48,3.25-1.94-.36-6.17-8.81-4.98-12.22-1.63Z" fill="#ffffff"/>
      <path d="M140.75,68.45c-.53.52-5.29-2.04-6.34-2.42-22.39-8.11-41.94,5.04-53.68,23.86-3.87,6.21-6.7,13.11-10.67,19.25-.98,1.51-1.87,3.21-3.36,4.25.6-5.2,1.67-9.79,0-14.94-6.67-20.73-28.51-6.04-42.5-17.78-15.15-12.71-2.43-36.38,15.55-28.86,10.85,4.54,8.48,20.47-1.53,20.29-3.59-.07-7.49-3.75-6.05-7.56,5.23,5.65,10.44-3.56,3.4-6.05-10.29-3.64-15.29,11.57-5.04,18.12,10.07,6.43,22.76-1.76,33.79,7.98,2.06,1.82,3.42,3.99,5.01,6.19-.48-3.11-1.37-6.08-2.6-8.95-7.89-18.33-22.08-34.6-16.2-56.26,6.05-22.27,33.37-30.7,50.21-15.01,14.96,13.94,9.56,42.81-12.39,44.32-14.86,1.02-26.62-14.83-17.97-28.32,6.71-10.47,24.12-7.61,22.81,4.62-.39,3.58-4.24,6.7-7.36,4.27-2.84-2.22,1.12-5.98-2.86-6.73-7.72-1.45-8.35,10.51-3,14.83,7.28,5.89,17.31.58,19.82-7.74C106.66,13.16,73.21.49,61.04,23.01c-7.98,14.76-1.53,32.68,13.52,39.07,20.87,8.85,36.71-15.64,60.27-.08,2.21,1.46,5.41,3.75,5.92,6.46ZM86.17,72.38c-4.14.68-8.43-.25-12.45-1.29-1.46-.38-2.82-1.23-4.36-1.12l4.65,10.18,1.4,5.5c2.62-5.24,6.19-8.76,10.39-12.58.2-.18.57.02.38-.69Z" fill="#ffffff"/>
      <path d="M101.12,147.67c3.24-3.04,1.51-9.02-2.25-10.91-7.88-3.97-12.9,5.51-17.85,10.12-7.16,6.67-16.63,11.26-26.56,10.55-.68-.05-4.26-.47-4.28-1.05l10.1-2.94c15.32-3.83,23.27-32.26,41.22-25.11,10.78,4.29,12.58,21.67,1.77,26.54-6.16,2.78-14.41-.37-13.57-8.14.33-3.08,4.11-6.99,7.08-4.82.13.54-1.09.94-1.44,1.54-2.18,3.68,2.43,7.36,5.76,4.23Z" fill="#ffffff"/>
    </g>
  </g>
</svg>
